<?xml version="1.0" encoding="utf-8"?>
<!-- Generator: Adobe Illustrator 22.0.0, SVG Export Plug-In . SVG Version: 6.00 Build 0)  -->
<svg version="1.1" id="图层_1" xmlns="http://www.w3.org/2000/svg" xmlns:xlink="http://www.w3.org/1999/xlink" x="0px" y="0px"
	 viewBox="0 0 850.4 850.4" style="enable-background:new 0 0 850.4 850.4;" xml:space="preserve">
<style type="text/css">
	.st0{fill:#DC2951;}
	.st1{fill:#62C0C1;}
	.st2{fill:#FFFFFF;}
</style>
<path d="M614.4,732H235.6c-64.9,0-117.6-52.6-117.6-117.6V235.6c0-64.9,52.6-117.6,117.6-117.6h378.8c64.9,0,117.6,52.6,117.6,117.6
	v378.8C732,679.4,679.3,732,614.4,732z"/>
<g>
	<g>
		<g>
			<path class="st0" d="M394,503.9H350V311.6h75.5v160.7C425.6,489.7,411.4,503.9,394,503.9z"/>
			<path class="st0" d="M515.8,238.2v214.4c0,45.2-36.6,81.8-81.8,81.8H290.9v60.8c0,22.3,18.1,40.3,40.3,40.3h150
				c60.3,0,109.2-48.9,109.2-109.2V284.6c0-25.6-20.8-46.4-46.4-46.4H515.8z"/>
			<path class="st0" d="M523,279.9H308.8v-1.5c0-22.3,18.1-40.3,40.3-40.3H523V279.9z"/>
		</g>
	</g>
	<g>
		<path class="st1" d="M362.6,480.4h-43.9V288.1h75.5v160.7C394.2,466.2,380,480.4,362.6,480.4z"/>
		<path class="st1" d="M484.4,214.7V429c0,45.2-36.6,81.8-81.8,81.8H259.6v60.8c0,22.3,18.1,40.3,40.3,40.3h150
			c60.3,0,109.2-48.9,109.2-109.2V261.1c0-25.6-20.8-46.4-46.4-46.4H484.4z"/>
		<path class="st1" d="M491.6,256.5H277.4V255c0-22.3,18.1-40.3,40.3-40.3h173.9V256.5z"/>
	</g>
	<g>
		<path class="st2" d="M377.7,492.6h-43.9V300.4h75.5V461C409.3,478.5,395.2,492.6,377.7,492.6z"/>
		<path class="st2" d="M499.6,226.9v214.4c0,45.2-36.6,81.8-81.8,81.8H274.7v60.8c0,22.3,18.1,40.3,40.3,40.3h150
			c60.3,0,109.2-48.9,109.2-109.2V273.3c0-25.6-20.8-46.4-46.4-46.4H499.6z"/>
		<path class="st2" d="M506.8,268.7H292.6v-1.5c0-22.3,18.1-40.3,40.3-40.3h173.9V268.7z"/>
	</g>
</g>
</svg>
