<?xml version="1.0" encoding="utf-8"?>
<!-- Generator: Adobe Illustrator 22.0.0, SVG Export Plug-In . SVG Version: 6.00 Build 0)  -->
<svg version="1.1" id="layout1" xmlns="http://www.w3.org/2000/svg" xmlns:xlink="http://www.w3.org/1999/xlink" x="0px" y="0px"
	 viewBox="0 0 850.4 850.4" style="enable-background:new 0 0 850.4 850.4;" xml:space="preserve">
<style type="text/css">
	.st0{fill:#DC2951;}
	.st1{fill:#62C0C1;}
	.st2{fill:#FFFFFF;}
</style>
<g>
	<g>
		<g>
			<path class="st0" d="M382,534.3h-60.8V267.9h104.6v222.6C425.8,514.7,406.2,534.3,382,534.3z"/>
			<path class="st0" d="M550.8,166.1v297.1c0,62.6-50.7,113.3-113.3,113.3H239.2v84.2c0,30.9,25,55.9,55.9,55.9h207.8
				c83.6,0,151.4-67.8,151.4-151.4V230.4c0-35.5-28.8-64.3-64.3-64.3H550.8z"/>
			<path class="st0" d="M560.8,224H264v-2c0-30.9,25-55.9,55.9-55.9h240.9V224z"/>
		</g>
	</g>
	<g>
		<path class="st1" d="M338.5,501.7h-60.8V235.3h104.6v222.6C382.3,482.1,362.7,501.7,338.5,501.7z"/>
		<path class="st1" d="M507.4,133.5v297.1c0,62.6-50.7,113.3-113.3,113.3H195.8v84.2c0,30.9,25,55.9,55.9,55.9h207.8
			c83.6,0,151.4-67.8,151.4-151.4V197.9c0-35.5-28.8-64.3-64.3-64.3H507.4z"/>
		<path class="st1" d="M517.3,191.4H220.5v-2c0-30.9,25-55.9,55.9-55.9h240.9V191.4z"/>
	</g>
	<g>
		<path class="st2" d="M359.5,518.7h-60.8V252.3h104.6v222.6C403.3,499.1,383.7,518.7,359.5,518.7z"/>
		<path class="st2" d="M528.4,150.5v297.1c0,62.6-50.7,113.3-113.3,113.3H216.8v84.2c0,30.9,25,55.9,55.9,55.9h207.8
			c83.6,0,151.4-67.8,151.4-151.4V214.8c0-35.5-28.8-64.3-64.3-64.3H528.4z"/>
		<path class="st2" d="M538.3,208.4H241.5v-2c0-30.9,25-55.9,55.9-55.9h240.9V208.4z"/>
	</g>
</g>
</svg>
