<svg width="24" height="24" viewBox="0 0 24 24" fill="none" xmlns="http://www.w3.org/2000/svg">
<path fill-rule="evenodd" clip-rule="evenodd" d="M16.2697 2C16.409 3.18387 15.9052 4.34936 15.1683 5.20627C14.3998 6.04939 13.1691 6.69506 11.9709 6.61148C11.8148 5.47353 12.4213 4.26303 13.1009 3.52461C13.8694 2.68607 15.2029 2.04409 16.2697 2ZM20.1919 8.82358C20.0541 8.90017 17.8421 10.1304 17.8666 12.6362C17.8943 15.6652 20.7154 16.6654 20.75 16.6764C20.7332 16.7462 20.3085 18.1211 19.2505 19.5162C18.3665 20.7451 17.4399 21.9464 15.9701 21.9684C15.2711 21.9833 14.7993 21.7962 14.3076 21.6013C13.7945 21.3979 13.2598 21.1859 12.4229 21.1859C11.5362 21.1859 10.9778 21.4046 10.4393 21.6155C9.9737 21.7979 9.52296 21.9745 8.88762 21.9987C7.48694 22.0474 6.41716 20.6872 5.50148 19.4694C3.67209 16.9841 2.24671 12.4644 4.1571 9.3895C5.08266 7.88142 6.77178 6.90972 8.57548 6.884C9.37005 6.86838 10.1322 7.15321 10.8003 7.40287C11.3108 7.59363 11.7664 7.76386 12.1394 7.76386C12.4677 7.76386 12.911 7.6002 13.4276 7.40949C14.2414 7.10901 15.2371 6.74139 16.2516 6.84083C16.945 6.8592 18.9206 7.09524 20.1949 8.8219L20.1919 8.82358Z" fill="#161823"/>
</svg>
