<svg width="24" height="24" viewBox="0 0 24 24" fill="none" xmlns="http://www.w3.org/2000/svg">
<path fill-rule="evenodd" clip-rule="evenodd" d="M11.9999 3C7.02931 3 2.99988 7.02944 2.99988 12C2.99988 16.9706 7.02931 21 11.9999 21C14.0275 21 15.8959 20.3307 17.4002 19.2005L17.7999 18.9002C18.0207 18.7343 18.3341 18.7788 18.5 18.9996L19.1007 19.7991C19.2666 20.0198 19.222 20.3333 19.0013 20.4992L18.6015 20.7995C16.7628 22.181 14.4755 23 11.9999 23C5.92475 23 0.999878 18.0751 0.999878 12C0.999878 5.92487 5.92475 1 11.9999 1C18.075 1 22.9999 5.92487 22.9999 12V13C22.9999 15.2421 21.0973 17 18.9218 17C17.5982 17 16.4247 16.3571 15.6966 15.3665C14.7824 16.3702 13.465 17 11.9999 17C9.23845 17 6.99988 14.7614 6.99988 12C6.99988 9.23858 9.23845 7 11.9999 7C14.7613 7 16.9999 9.23858 16.9999 12C16.9999 12.2907 16.975 12.5764 16.9269 12.8548C16.9235 12.9026 16.9218 12.951 16.9218 13C16.9218 14.1046 17.8172 15 18.9218 15C20.0599 15 20.9999 14.0716 20.9999 13V12C20.9999 7.02944 16.9704 3 11.9999 3ZM11.9999 9C10.343 9 8.99988 10.3431 8.99988 12C8.99988 13.6569 10.343 15 11.9999 15C13.4696 15 14.6944 13.9421 14.9505 12.5459C14.9828 12.3696 14.9999 12.1872 14.9999 12C14.9999 10.3431 13.6567 9 11.9999 9Z" fill="#161823"/>
</svg>
