<svg width="24" height="24" viewBox="0 0 24 24" fill="none" xmlns="http://www.w3.org/2000/svg">
<path fill-rule="evenodd" clip-rule="evenodd" d="M11.9999 3C7.02931 3 2.99988 7.02944 2.99988 12C2.99988 16.9706 7.02931 21 11.9999 21C16.9704 21 20.9999 16.9706 20.9999 12C20.9999 7.02944 16.9704 3 11.9999 3ZM0.999878 12C0.999878 5.92487 5.92475 1 11.9999 1C18.075 1 22.9999 5.92487 22.9999 12C22.9999 18.0751 18.075 23 11.9999 23C5.92475 23 0.999878 18.0751 0.999878 12Z" fill="#161823"/>
<path fill-rule="evenodd" clip-rule="evenodd" d="M8.49988 11.5C9.32831 11.5 9.99988 10.6046 9.99988 9.5C9.99988 8.39543 9.32831 7.5 8.49988 7.5C7.67145 7.5 6.99988 8.39543 6.99988 9.5C6.99988 10.6046 7.67145 11.5 8.49988 11.5Z" fill="#161823"/>
<path fill-rule="evenodd" clip-rule="evenodd" d="M15.4999 11.5C16.3283 11.5 16.9999 10.6046 16.9999 9.5C16.9999 8.39543 16.3283 7.5 15.4999 7.5C14.6715 7.5 13.9999 8.39543 13.9999 9.5C13.9999 10.6046 14.6715 11.5 15.4999 11.5Z" fill="#161823"/>
<path fill-rule="evenodd" clip-rule="evenodd" d="M7.99988 14.1716C7.99988 15.7337 9.79074 18 11.9999 18C14.209 18 15.9999 15.7337 15.9999 14.1716C15.9999 12.6095 7.99988 12.6095 7.99988 14.1716Z" fill="#161823"/>
</svg>
