<svg width="44" height="44" viewBox="0 0 48 48" fill="none" xmlns="http://www.w3.org/2000/svg"><path d="M24 47C36.7025 47 47 36.7025 47 24C47 11.2975 36.7025 1 24 1C11.2975 1 1 11.2975 1 24C1 36.7025 11.2975 47 24 47Z" fill="white"></path><path d="M24 1C11.2964 1 1 11.2964 1 24C1 35.4775 9.40298 44.9804 20.3846 46.7205L20.3936 30.6629H14.5151V24.009H20.3936C20.3936 24.009 20.3665 20.2223 20.3936 18.5363C20.4206 16.8503 20.7542 15.2274 21.6288 13.7487C22.9722 11.4586 25.0639 10.3407 27.6335 10.0251C29.7432 9.76362 31.826 10.0521 33.9087 10.3407C34.0529 10.3587 34.125 10.3767 34.2693 10.4038C34.2693 10.4038 34.2783 10.6472 34.2693 10.8005C34.2603 12.4053 34.2693 16.0839 34.2693 16.0839C33.2685 16.0659 31.6096 15.9667 30.5096 16.138C28.6884 16.4175 27.6425 17.5806 27.6064 19.4108C27.5704 20.8354 27.5884 24.009 27.5884 24.009H33.9988L32.962 30.6629H27.5974V46.7205C38.597 44.9984 47.009 35.4775 47.009 24C47 11.2964 36.7036 1 24 1Z" fill="#0075FA"></path></svg>