<svg width="24" height="24" viewBox="0 0 24 24" fill="none" xmlns="http://www.w3.org/2000/svg">
<g opacity="0.5">
<path d="M9.38086 9.3C9.81775 8.05804 11.0867 7.31227 12.3843 7.53485C13.6819 7.75742 14.6298 8.88344 14.6279 10.2C14.6279 12 11.9279 12.9 11.9279 12.9" stroke="#161823" stroke-width="1.5" stroke-linecap="round" stroke-linejoin="round"/>
<path fill-rule="evenodd" clip-rule="evenodd" d="M12 21C16.9706 21 21 16.9706 21 12C21 7.02944 16.9706 3 12 3C7.02944 3 3 7.02944 3 12C3 16.9706 7.02944 21 12 21Z" stroke="#161823" stroke-width="1.5" stroke-linecap="round" stroke-linejoin="round"/>
<path fill-rule="evenodd" clip-rule="evenodd" d="M12 17.4C12.6628 17.4 13.2 16.8627 13.2 16.2C13.2 15.5373 12.6628 15 12 15C11.3373 15 10.8 15.5373 10.8 16.2C10.8 16.8627 11.3373 17.4 12 17.4Z" fill="#161823"/>
</g>
</svg>
