<?xml version="1.0" encoding="UTF-8"?>
<svg width="2500px" height="2500px" viewBox="0 0 2500 2500" version="1.1" xmlns="http://www.w3.org/2000/svg" xmlns:xlink="http://www.w3.org/1999/xlink">
    <!-- Generator: Sketch 54 (76480) - https://sketchapp.com -->
    <title>kakaotalk</title>
    <desc>Created with Sketch.</desc>
    <g id="1" stroke="none" stroke-width="1" fill="none" fill-rule="evenodd">
        <g id="kakaotalk">
            <rect id="" fill="#FFE812" x="0" y="0" width="2500" height="2500" rx="1250"></rect>
            <path d="M1250,351.5625 C689.082031,351.5625 234.375,710.087891 234.375,1152.34375 C234.375,1438.27148 424.472656,1689.16016 710.429687,1830.83008 C694.873047,1884.48242 610.458984,2175.98633 607.099609,2198.88672 C607.099609,2198.88672 605.078125,2216.09375 616.220703,2222.65625 C627.363281,2229.21875 640.46875,2224.12109 640.46875,2224.12109 C672.421875,2219.6582 1011.00586,1981.82617 1069.60938,1940.52734 C1128.1543,1948.81836 1188.4375,1953.125 1250,1953.125 C1810.91797,1953.125 2265.625,1594.60938 2265.625,1152.34375 C2265.625,710.087891 1810.91797,351.5625 1250,351.5625 Z" id="" fill="#000000" fill-rule="nonzero"></path>
            <path d="M688.476562,1431.88477 C656.162109,1431.88477 629.882812,1406.78711 629.882812,1375.92773 L629.882812,1027.83203 L538.457031,1027.83203 C506.748047,1027.83203 480.957031,1002.08984 480.957031,970.458984 C480.957031,938.828125 506.757812,913.085938 538.457031,913.085938 L838.496094,913.085938 C870.205078,913.085938 895.996094,938.828125 895.996094,970.458984 C895.996094,1002.08984 870.195312,1027.83203 838.496094,1027.83203 L747.070312,1027.83203 L747.070312,1375.92773 C747.070312,1406.78711 720.791016,1431.88477 688.476562,1431.88477 Z M1202.26562,1431.12305 C1177.83203,1431.12305 1159.14062,1421.20117 1153.50586,1405.24414 L1124.49219,1329.28711 L945.820312,1329.27734 L916.787109,1405.2832 C911.171875,1421.21094 892.490234,1431.12305 868.056641,1431.12305 C855.204401,1431.13621 842.500399,1428.37823 830.810547,1423.03711 C814.658203,1415.58594 799.130859,1395.09766 816.923828,1339.83398 L957.080078,970.927734 C966.953125,942.871094 996.943359,913.964844 1035.10742,913.095703 C1073.37891,913.955078 1103.36914,942.871094 1113.26172,970.986328 L1253.35938,1339.72656 C1271.19141,1395.11719 1255.66406,1415.61523 1239.51172,1423.04687 C1227.81908,1428.37851 1215.11646,1431.13286 1202.26562,1431.12305 C1202.25586,1431.12305 1202.26562,1431.12305 1202.26562,1431.12305 L1202.26562,1431.12305 Z M1093.68164,1225.49805 L1035.15625,1059.23828 L976.630859,1225.49805 L1093.68164,1225.49805 L1093.68164,1225.49805 Z M1347.65625,1423.33984 C1316.68945,1423.33984 1291.50391,1399.23828 1291.50391,1369.62891 L1291.50391,971.679688 C1291.50391,939.365234 1318.33984,913.085938 1351.31836,913.085938 C1384.29688,913.085938 1411.13281,939.365234 1411.13281,971.679688 L1411.13281,1315.91797 L1535.64453,1315.91797 C1566.61133,1315.91797 1591.79688,1340.01953 1591.79688,1369.62891 C1591.79688,1399.23828 1566.61133,1423.33984 1535.64453,1423.33984 L1347.65625,1423.33984 Z M1673.18359,1431.12305 C1640.86914,1431.12305 1614.58984,1404.84375 1614.58984,1372.5293 L1614.58984,971.679688 C1614.58984,939.365234 1640.86914,913.085938 1673.18359,913.085938 C1705.49805,913.085938 1731.77734,939.365234 1731.77734,971.679688 L1731.77734,1097.61719 L1895.25391,934.140625 C1903.66211,925.732422 1915.21484,921.103516 1927.75391,921.103516 C1942.38281,921.103516 1957.07031,927.412109 1968.07617,938.408203 C1978.33984,948.662109 1984.46289,961.855469 1985.30273,975.556641 C1986.15234,989.375 1981.55273,1002.04102 1972.37305,1011.23047 L1838.84766,1144.73633 L1983.07617,1335.81055 C1992.48233,1348.19225 1996.53435,1363.82698 1994.32617,1379.21875 C1992.21643,1394.62011 1984.02933,1408.53606 1971.5918,1417.86133 C1961.45924,1425.56305 1949.07496,1429.7186 1936.34766,1429.6875 C1917.93767,1429.77318 1900.57517,1421.13359 1889.54102,1406.39648 L1752.12891,1224.32617 L1731.79687,1244.6582 L1731.79687,1372.5 C1731.75922,1404.85719 1705.54078,1431.08 1673.18359,1431.12305 L1673.18359,1431.12305 Z" id="" fill="#FFE812" fill-rule="nonzero"></path>
        </g>
    </g>
</svg>