<svg width="20" height="20" viewBox="0 0 20 20" fill="none" xmlns="http://www.w3.org/2000/svg">
<path fill-rule="evenodd" clip-rule="evenodd" d="M10 3.75714C12.0823 1.55949 15.2219 1.55671 17.2196 3.56692C19.2601 5.62029 19.2601 8.94732 17.2196 11.0007L10.5911 17.6708C10.4347 17.8282 10.2219 17.9167 10 17.9167C9.77808 17.9167 9.56533 17.8282 9.4089 17.6708L2.78042 11.0007C0.739858 8.94732 0.739858 5.62029 2.78042 3.56692C4.77809 1.55671 7.91772 1.55949 10 3.75714ZM16.0374 4.74173C14.674 3.36974 12.5063 3.36336 11.0443 5.08829L11.0229 5.11347L10 6.14281L8.97708 5.11347L8.95573 5.08829C7.49372 3.36336 5.32605 3.36974 3.96262 4.74173C2.56802 6.14509 2.56802 8.42253 3.96262 9.82588L10 15.9012L16.0374 9.82588C17.432 8.42253 17.432 6.14509 16.0374 4.74173Z" fill="#161823" fill-opacity="0.5"/>
<path d="M19 7.17675C19 8.54975 18.457 9.86648 17.4907 10.837L10.6182 17.7426C10.2767 18.0858 9.72291 18.0858 9.38135 17.7426L2.50884 10.837C0.497054 8.81548 0.497054 5.53801 2.50884 3.51653C4.52062 1.49505 7.78237 1.49505 9.79416 3.51653L9.99979 3.72316L10.2053 3.51668C11.1713 2.54559 12.4817 2 13.8481 2C15.2144 2 16.5248 2.54553 17.4907 3.51653C18.4571 4.48715 19 5.80381 19 7.17675Z" fill="#FE2C55"/>
</svg>
