<svg width="44" height="44" viewBox="0 0 48 48" fill="none" xmlns="http://www.w3.org/2000/svg"><path fill-rule="evenodd" clip-rule="evenodd" d="M24 47.001C36.7026 47.001 47 36.7035 47 24.001C47 11.2984 36.7026 1.00098 24 1.00098C11.2975 1.00098 1 11.2984 1 24.001C1 36.7035 11.2975 47.001 24 47.001Z" fill="#00B900"></path><path d="M40.0001 22.4324C40.0001 15.2729 32.8228 9.44822 23.9999 9.44822C15.1782 9.44822 8 15.2729 8 22.4324C8 28.8509 13.6922 34.2263 21.3811 35.2427C21.9022 35.355 22.6114 35.5863 22.7908 36.0316C22.9522 36.4362 22.8963 37.0699 22.8423 37.4784C22.8423 37.4784 22.6546 38.6075 22.6141 38.848C22.5445 39.2525 22.2927 40.43 23.9999 39.7105C25.7078 38.9909 33.2145 34.2848 36.5713 30.421H36.5707C38.8895 27.8783 40.0001 25.2978 40.0001 22.4324Z" fill="white"></path><path d="M20.7494 18.9727H19.6271C19.4551 18.9727 19.3152 19.1123 19.3152 19.2837V26.2556C19.3152 26.4273 19.4551 26.5666 19.6271 26.5666H20.7494C20.9215 26.5666 21.0611 26.4273 21.0611 26.2556V19.2837C21.0611 19.1123 20.9215 18.9727 20.7494 18.9727Z" fill="#00B900"></path><path d="M28.4738 18.9727H27.3515C27.1794 18.9727 27.0399 19.1123 27.0399 19.2837V23.4257L23.845 19.1111C23.8377 19.1 23.8294 19.0896 23.8208 19.0795L23.8187 19.0776C23.8125 19.0706 23.8064 19.0644 23.7999 19.0583C23.7981 19.0565 23.7963 19.0549 23.7941 19.0531C23.7889 19.0482 23.7834 19.0436 23.7776 19.0393C23.7751 19.0368 23.7723 19.035 23.7696 19.0328C23.7641 19.0292 23.7588 19.0252 23.7533 19.0218C23.7503 19.0197 23.7472 19.0178 23.7438 19.0163C23.7383 19.0129 23.7328 19.0095 23.7272 19.0068C23.7239 19.0052 23.7208 19.0034 23.7174 19.0022C23.7116 18.9994 23.7058 18.9967 23.6996 18.9945C23.696 18.9933 23.6929 18.9921 23.6895 18.9908C23.6834 18.9887 23.6773 18.9865 23.6708 18.985C23.6674 18.9838 23.6638 18.9832 23.6601 18.9819C23.6539 18.9807 23.6481 18.9792 23.6423 18.9779C23.638 18.9773 23.6334 18.9767 23.6291 18.9764C23.6236 18.9752 23.6181 18.9749 23.6125 18.9743C23.6073 18.9737 23.6021 18.9737 23.5966 18.9733C23.5926 18.9733 23.5895 18.9727 23.5855 18.9727H22.4635C22.2915 18.9727 22.1516 19.1123 22.1516 19.2837V26.2556C22.1516 26.4273 22.2915 26.5666 22.4635 26.5666H23.5855C23.7579 26.5666 23.8975 26.4273 23.8975 26.2556V22.1148L27.0963 26.435C27.1184 26.4663 27.1457 26.4917 27.1754 26.512C27.1764 26.5126 27.1776 26.5135 27.1785 26.5144C27.1849 26.5184 27.1914 26.5224 27.1978 26.5261C27.2009 26.5279 27.2037 26.5292 27.2067 26.5307C27.2113 26.5335 27.2165 26.5359 27.2214 26.5381C27.2267 26.5402 27.2313 26.5424 27.2368 26.5445C27.2398 26.5457 27.2429 26.547 27.246 26.5479C27.2533 26.5506 27.2601 26.5528 27.2671 26.5549C27.2687 26.5549 27.2702 26.5555 27.2717 26.5559C27.2972 26.5626 27.3239 26.5666 27.3515 26.5666H28.4738C28.6462 26.5666 28.7854 26.4273 28.7854 26.2556V19.2837C28.7854 19.1123 28.6462 18.9727 28.4738 18.9727Z" fill="#00B900"></path><path d="M18.0433 24.821H14.9939V19.2843C14.9939 19.1123 14.8543 18.9727 14.6825 18.9727H13.5599C13.3879 18.9727 13.2483 19.1123 13.2483 19.2843V26.2549V26.2555C13.2483 26.3393 13.2817 26.415 13.3354 26.4709C13.3366 26.4724 13.3379 26.4739 13.3397 26.4755C13.3412 26.477 13.3428 26.4782 13.3443 26.4798C13.4004 26.5337 13.4759 26.5669 13.5596 26.5669H13.5599H18.0433C18.2154 26.5669 18.3543 26.427 18.3543 26.2549V25.1326C18.3543 24.9606 18.2154 24.821 18.0433 24.821Z" fill="#00B900"></path><path d="M34.6715 20.7186C34.8435 20.7186 34.9825 20.5793 34.9825 20.4069V19.2846C34.9825 19.1126 34.8435 18.9727 34.6715 18.9727H30.1881H30.1875C30.1034 18.9727 30.0277 19.0064 29.9715 19.0607C29.9703 19.062 29.9688 19.0629 29.9679 19.0641C29.966 19.0659 29.9645 19.0678 29.963 19.0696C29.9096 19.1254 29.8765 19.2009 29.8765 19.2843V19.2846V26.2552V26.2555C29.8765 26.3393 29.9099 26.415 29.9636 26.4709C29.9648 26.4724 29.9663 26.4742 29.9679 26.4755C29.9691 26.477 29.9709 26.4785 29.9725 26.4798C30.0283 26.5334 30.1041 26.5669 30.1875 26.5669H30.1881H34.6715C34.8435 26.5669 34.9825 26.427 34.9825 26.2552V25.1326C34.9825 24.9609 34.8435 24.821 34.6715 24.821H31.6223V23.6426H34.6715C34.8435 23.6426 34.9825 23.503 34.9825 23.3309V22.2086C34.9825 22.0366 34.8435 21.8967 34.6715 21.8967H31.6223V20.7186H34.6715Z" fill="#00B900"></path></svg>