<svg width="46" height="46" viewBox="0 0 46 46" fill="none" xmlns="http://www.w3.org/2000/svg"><path fill-rule="evenodd" clip-rule="evenodd" d="M23 46C35.7025 46 46 35.7025 46 23C46 10.2975 35.7025 0 23 0C10.2975 0 0 10.2975 0 23C0 35.7025 10.2975 46 23 46Z" fill="#161823" fill-opacity="0.06"></path><path fill-rule="evenodd" clip-rule="evenodd" d="M24.952 13.8561L34.1644 30C34.9806 31.4297 33.9602 33.2176 32.3283 33.2176H13.9036C12.2717 33.2176 11.2513 31.4297 12.0675 30L21.2799 13.8561C22.0961 12.4259 24.1358 12.4259 24.952 13.8561Z" stroke="#161823" stroke-width="1.5"></path><path d="M23.1334 20.2175V25.4897" stroke="#161823" stroke-width="1.5" stroke-linecap="round" stroke-linejoin="round"></path><path fill-rule="evenodd" clip-rule="evenodd" d="M23.1161 29.5401C22.6415 29.5401 22.2567 29.1514 22.2567 28.6712C22.2567 28.191 22.6415 27.8022 23.1161 27.8022C23.5902 27.8022 23.975 28.191 23.975 28.6712C23.975 29.1514 23.5902 29.5401 23.1161 29.5401Z" fill="#161823"></path></svg>