<svg width="28" height="28" viewBox="0 0 28 28" fill="none" xmlns="http://www.w3.org/2000/svg">
<circle cx="13.9998" cy="14.0001" r="12.8333" fill="#FE2C55"/>
<path fill-rule="evenodd" clip-rule="evenodd" d="M14.8253 7.73062L20.1976 13.1029C20.4254 13.3307 20.4254 13.7 20.1976 13.9278L19.3726 14.7528C19.1448 14.9806 18.7755 14.9806 18.5477 14.7528L15.167 11.3722L15.167 19.5417C15.167 19.8639 14.9059 20.125 14.5837 20.125H13.417C13.0949 20.125 12.8337 19.8639 12.8337 19.5417L12.8337 11.3722L9.4531 14.7528C9.22529 14.9806 8.85594 14.9806 8.62814 14.7528L7.80318 13.9278C7.57537 13.7 7.57537 13.3307 7.80318 13.1029L13.1754 7.73062C13.631 7.27501 14.3697 7.27501 14.8253 7.73062Z" fill="white"/>
</svg>
