<svg width="44" height="44" viewBox="0 0 48 48" fill="none" xmlns="http://www.w3.org/2000/svg"><path fill-rule="evenodd" clip-rule="evenodd" d="M24.0002 47.001C36.7028 47.001 47.0002 36.7035 47.0002 24.001C47.0002 11.2984 36.7028 1.00098 24.0002 1.00098C11.2977 1.00098 1.00024 11.2984 1.00024 24.001C1.00024 36.7035 11.2977 47.001 24.0002 47.001Z" fill="#1DA1F2"></path><path fill-rule="evenodd" clip-rule="evenodd" d="M38.2029 13.5327C37.3894 14.0824 35.5215 14.8813 34.6003 14.8813V14.8829C33.5484 13.7237 32.0675 13 30.4252 13C27.2353 13 24.6488 15.7287 24.6488 19.0925C24.6488 19.5598 24.7001 20.0157 24.795 20.4529H24.794C20.4671 20.3331 15.7348 18.0452 12.886 14.1294C11.1344 17.3277 12.6501 20.8848 14.6378 22.1809C13.9574 22.235 12.7049 22.0982 12.1153 21.4913C12.0758 23.6142 13.0434 26.4269 16.5714 27.4473C15.8919 27.8329 14.6892 27.7223 14.1662 27.6402C14.3497 29.4322 16.7285 31.775 19.3297 31.775C18.4026 32.9063 14.9144 34.9582 11 34.3054C13.6584 36.0118 16.7568 37 20.0362 37C29.3556 37 36.5929 29.0322 36.2034 19.2027C36.2019 19.1919 36.2019 19.1811 36.2009 19.1693C36.2019 19.144 36.2034 19.1187 36.2034 19.0925C36.2034 19.0619 36.2009 19.0331 36.2 19.0035C37.0484 18.3914 38.1868 17.3087 39 15.8836C38.5284 16.1577 37.1134 16.7064 35.7968 16.8426C36.6418 16.3615 37.8937 14.7858 38.2029 13.5327Z" fill="white"></path></svg>