<svg width="44" height="44" viewBox="0 0 48 48" fill="none" xmlns="http://www.w3.org/2000/svg"><path fill-rule="evenodd" clip-rule="evenodd" d="M24 47C36.7025 47 47 36.7025 47 24C47 11.2975 36.7025 1 24 1C11.2975 1 1 11.2975 1 24C1 36.7025 11.2975 47 24 47Z" fill="#25D366"></path><path fill-rule="evenodd" clip-rule="evenodd" d="M30.9028 25.6129C30.5802 25.4515 28.9944 24.6713 28.6988 24.5635C28.4031 24.4559 28.1881 24.4021 27.9731 24.7249C27.758 25.0478 27.1399 25.7744 26.9517 25.9897C26.7636 26.2049 26.5754 26.2319 26.2529 26.0704C25.9303 25.909 24.891 25.5684 23.659 24.4694C22.7002 23.6141 22.0528 22.5579 21.8647 22.235C21.6765 21.9121 21.8446 21.7375 22.0061 21.5767C22.1512 21.4321 22.3287 21.2 22.4899 21.0116C22.6512 20.8233 22.705 20.6887 22.8125 20.4735C22.92 20.2582 22.8663 20.0699 22.7855 19.9085C22.7049 19.747 22.0599 18.1593 21.7911 17.5134C21.5293 16.8845 21.2634 16.9697 21.0654 16.9598C20.8774 16.9504 20.6622 16.9484 20.4472 16.9484C20.2322 16.9484 19.8827 17.0291 19.587 17.352C19.2914 17.6749 18.4581 18.4553 18.4581 20.0428C18.4581 21.6306 19.6139 23.1643 19.7752 23.3795C19.9365 23.5949 22.0496 26.8528 25.2853 28.2499C26.0548 28.5823 26.6557 28.7807 27.1241 28.9293C27.8968 29.1749 28.5999 29.1402 29.1557 29.0572C29.7754 28.9646 31.064 28.277 31.3328 27.5235C31.6016 26.7699 31.6016 26.1242 31.521 25.9897C31.4404 25.8551 31.2253 25.7744 30.9028 25.6129ZM25.0178 33.6472H25.0134C23.0881 33.6465 21.1998 33.1292 19.5524 32.1517L19.1606 31.9191L15.0998 32.9844L16.1837 29.0251L15.9286 28.6191C14.8546 26.9109 14.2873 24.9365 14.2881 22.9091C14.2905 16.9934 19.1037 12.1805 25.022 12.1805C27.8879 12.1815 30.5817 13.299 32.6076 15.3271C34.6333 17.3551 35.7482 20.0509 35.7471 22.9178C35.7447 28.8339 30.9315 33.6472 25.0178 33.6472ZM34.1489 13.7858C31.7117 11.3458 28.4706 10.0014 25.0173 10C17.902 10 12.111 15.7906 12.1082 22.908C12.1073 25.1832 12.7017 27.4039 13.8313 29.3617L12 36.0509L18.8432 34.2559C20.7287 35.2843 22.8516 35.8264 25.0121 35.827H25.0174H25.0174C32.132 35.827 37.9234 30.0359 37.9263 22.9184C37.9276 19.4691 36.5861 16.2258 34.1489 13.7858Z" fill="white"></path></svg>